# xmcd
#
# Track frame offsets:
#	150
#	29020
#	37562
#	75297
#	89960
#	128165
#	157652
#	198775
#	208540
#	223395
#	236972
#	258972
#	290467
#	298670
#
# Disc length: 4467 seconds
#
# Revision: 0
# Processed by: cddbd v1.5.2PL0 Copyright (c) Steve Scherf et al.
# Submitted via: EasyCDDAExtractor 12.0.4.1
#
DISCID=c711710e
DTITLE=Robert Stolz - Robert Stolz Conducts Waltzes, Marches and Polkas
DYEAR=1900
DGENRE=
TTITLE0=神秘的引力圆舞曲-【Josef struss】 Op. 173
TTITLE1=活泼的少年快速波尔卡-【Josef struss】 Op. 181
TTITLE2=股票交易圆舞曲-【Josef struss】 Op. 184
TTITLE3=蜻蜓波尔卡玛祖卡-【Josef struss】 Op. 204
TTITLE4=谵妄圆舞曲-【Josef struss】Op. 212
TTITLE5=圣母之声圆舞曲-【Josef struss】 Op. 214
TTITLE6=天体乐声圆舞曲-【Josef struss】 Op. 235
TTITLE7=投递快速波尔卡-【Josef struss】 Op. 240
TTITLE8=特效的微孔法兰西波尔卡-【Josef struss】 Op. 241
TTITLE9=喋喋不休快速波尔卡-【Josef struss】Op. 245
TTITLE10=防卫者-四对舞曲-【施特劳斯三兄弟合作】
TTITLE11=水彩画圆舞曲-【Josef struss】 Op. 258
TTITLE12=溜冰快速波尔卡-【Josef struss】Op. 261
TTITLE13=我的生涯充满爱与欢乐圆舞曲-【Josef struss】Op. 263
EXTD=
EXTT0=
EXTT1=
EXTT2=
EXTT3=
EXTT4=
EXTT5=
EXTT6=
EXTT7=
EXTT8=
EXTT9=
EXTT10=
EXTT11=
EXTT12=
EXTT13=
PLAYORDER=
